<svg version="1.2" xmlns="http://www.w3.org/2000/svg" viewBox="0 0 24 24" width="24" height="24">
	<title>image</title>
	<style>
		.s0 { fill: #000000 } 
	</style>
	<path id="Layer" class="s0" d="m10.5 9l4.5 3-4.5 3z"/>
	<path id="Layer" fill-rule="evenodd" class="s0" d="m19.4 14.2l-1.8 3.1-2-0.3q-0.1 0.1-0.2 0.1-0.2 0.1-0.3 0.2-0.1 0.1-0.3 0.1-0.1 0.1-0.3 0.1l-0.7 2h-3.6l-0.7-1.9q-0.2-0.1-0.3-0.2-0.2 0-0.3-0.1-0.1-0.1-0.3-0.1-0.1-0.1-0.2-0.2l-2 0.3-1.8-3.1 1.4-1.7q0-0.2 0-0.3 0-0.1 0-0.2 0-0.1 0-0.2 0-0.1 0-0.3l-1.4-1.7 1.8-3.1 2 0.3q0.1-0.1 0.2-0.1 0.2-0.1 0.3-0.2 0.1-0.1 0.3-0.1 0.1-0.1 0.3-0.2l0.7-1.9h3.6l0.7 1.9q0.6 0.3 1.1 0.6l2-0.3 1.8 3.1-1.4 1.7q0 0.2 0 0.3 0 0.1 0 0.2 0 0.1 0 0.2 0 0.1 0 0.3zm-2.9-3.2q0 0 0 0zm1.1-1.4l-0.8-1.3-1.5 0.2-0.5-0.3q-0.1-0.1-0.2-0.1-0.1-0.1-0.2-0.1-0.1-0.1-0.2-0.1-0.1-0.1-0.2-0.1l-0.6-0.2-0.6-1.7h-1.5l-0.7 1.7-0.6 0.2q-0.1 0-0.2 0.1-0.1 0-0.2 0.1-0.1 0-0.2 0.1-0.1 0-0.2 0.1l-0.5 0.3-1.5-0.2-0.8 1.3 1.2 1.4-0.1 0.6q0 0.1 0 0.2 0 0 0 0.1 0 0.1 0 0.2 0 0.1 0 0.2l0.1 0.6-1.2 1.4 0.8 1.3 1.5-0.2 0.5 0.3q0.4 0.2 0.8 0.4l0.6 0.2 0.7 1.6h1.5l0.6-1.6 0.6-0.2q0.1-0.1 0.2-0.1 0.1 0 0.2-0.1 0.1-0.1 0.2-0.1 0.1-0.1 0.2-0.1l0.5-0.3 1.5 0.2 0.8-1.3-1.1-1.4v-0.6q0-0.1 0-0.2 0-0.1 0-0.2 0-0.1 0-0.2 0 0 0-0.1c0 0 0-0.6 0-0.6z"/>
</svg>