<svg version="1.2" xmlns="http://www.w3.org/2000/svg" viewBox="0 0 24 24" width="24" height="24">
	<title>image</title>
	<style>
		.s0 { fill: #000000 } 
	</style>
	<path id="Layer" class="s0" d="m17.7 6.5q0.3 0.7 0.3 1.4 0 0.7-0.2 1.4-0.3 0.7-0.7 1.2-0.3-0.4-0.6-0.7l-0.3-0.3q-0.1-0.1-0.2-0.1 0.3-0.4 0.4-0.7 0.1-0.4 0.1-0.8 0-0.5-0.2-0.8-0.2-0.4-0.5-0.7l-0.2-0.3q-0.3-0.3-0.7-0.4-0.5-0.2-0.9-0.2-0.4 0-0.9 0.2-0.4 0.1-0.7 0.4l-2.7 2.8q-0.4 0.3-0.5 0.7-0.2 0.5-0.2 0.9 0 0.4 0.2 0.9 0.1 0.4 0.5 0.7l0.2 0.3q0.3 0.2 0.7 0.4 0.3 0.2 0.7 0.2 0.4 0 0.8-0.1 0.4-0.1 0.7-0.3 0.1 0 0.2 0.1 0 0 0.1 0 0 0.1 0.1 0.2 0 0 0.1 0.1 0.1 0.1 0.1 0.2 0.1 0.2 0.1 0.3 0 0.1-0.1 0.3 0 0.1-0.1 0.2v0.1q-0.6 0.2-1.2 0.4-0.6 0.1-1.2 0-0.6-0.1-1.1-0.4-0.5-0.3-1-0.7l-0.2-0.2q-0.5-0.6-0.8-1.3-0.3-0.7-0.3-1.4 0-0.7 0.3-1.4 0.3-0.7 0.8-1.3l2.7-2.7q0.6-0.5 1.3-0.8 0.7-0.3 1.4-0.3 0.7 0 1.4 0.3 0.7 0.3 1.3 0.8l0.2 0.3q0.5 0.5 0.8 1.1z"/>
	<path id="Layer" class="s0" d="m15.4 10.8q0.5 0.6 0.8 1.3 0.3 0.7 0.3 1.4 0 0.7-0.3 1.4-0.3 0.7-0.8 1.2l-2.7 2.8q-0.6 0.5-1.3 0.8-0.7 0.3-1.4 0.3-0.7 0-1.4-0.3-0.7-0.3-1.3-0.8l-0.2-0.3q-0.5-0.5-0.8-1.1-0.3-0.7-0.3-1.4 0-0.7 0.2-1.4 0.3-0.7 0.7-1.2 0.1 0.1 0.2 0.2 0 0.1 0.1 0.2 0.1 0.1 0.2 0.1 0 0.1 0.1 0.2l0.3 0.3q0.1 0.1 0.2 0.1-0.3 0.4-0.4 0.7-0.1 0.4-0.1 0.8 0 0.5 0.2 0.8 0.2 0.4 0.5 0.7l0.2 0.3q0.3 0.3 0.7 0.4 0.5 0.2 0.9 0.2 0.4 0 0.9-0.2 0.4-0.1 0.7-0.4l2.7-2.8q0.4-0.3 0.5-0.7 0.2-0.5 0.2-0.9 0-0.4-0.2-0.9-0.1-0.4-0.5-0.7l-0.2-0.2q-0.3-0.3-0.7-0.5-0.3-0.2-0.7-0.2-0.4 0-0.8 0.1-0.4 0.1-0.7 0.3-0.1 0-0.2-0.1l-0.3-0.3q-0.1-0.1-0.2-0.2 0-0.2 0-0.3 0-0.1 0-0.3 0.1-0.1 0.2-0.2l0.1-0.1q0.5-0.3 1.1-0.4 0.6-0.1 1.2 0 0.6 0.1 1.1 0.4 0.5 0.3 0.9 0.7z"/>
</svg>