<svg version="1.2" xmlns="http://www.w3.org/2000/svg" viewBox="0 0 40 40" width="40" height="40">
	<title>folder</title>
	<style>
		.s0 { fill: #8aa8ca } 
		.s1 { fill: #a1c9f7 } 
	</style>
	<path id="Layer" class="s0" d="m15 7q0.8 0 1.3 0.7l0.8 2.1c0.1 0.3 0.3 0.6 0.5 0.8q0.4 0.4 1.2 0.4h16.7v18c0 1-0.3 1.6-0.8 2.1q-0.9 0.9-2.4 0.9h-23.6q-1.5 0-2.4-0.9-0.8-0.8-0.8-2.4v-21.7c0 0 9.5 0 9.5 0z"/>
	<path id="Layer" class="s1" d="m15 7q0.8 0 1.3 0.7l0.8 2.1c0.1 0.3 0.3 0.6 0.5 0.8q0.4 0.4 1.2 0.4h16.7v16.8q0 1.5-0.8 2.3-0.9 0.9-2.4 0.9h-23.6q-1.5 0-2.4-0.9-0.8-0.8-0.8-2.4v-20.7c0 0 9.5 0 9.5 0z"/>
</svg>