<svg version="1.2" xmlns="http://www.w3.org/2000/svg" viewBox="0 0 24 24" width="24" height="24">
	<title>image</title>
	<style>
		.s0 { fill: #000000 } 
	</style>
	<path id="Layer" class="s0" d="m20 7v9.8q0 0.4-0.2 0.8-0.1 0.4-0.5 0.7-0.3 0.4-0.7 0.5-0.4 0.2-0.9 0.2h-3.7v-1.5h3.8q0.1 0 0.2-0.1 0.2 0 0.3-0.1 0.1-0.1 0.1-0.3 0.1-0.1 0.1-0.3v-8.2h-9l-0.8-1.6q0-0.1-0.1-0.2 0 0-0.1-0.1-0.1 0-0.2-0.1-0.1 0-0.2 0h-3.1v10.2q0 0.2 0.1 0.3 0 0.2 0.1 0.3 0.1 0.1 0.3 0.1 0.1 0.1 0.3 0.1h3.7v1.5h-3.7q-0.5 0-0.9-0.2-0.4-0.1-0.7-0.5-0.4-0.3-0.5-0.7-0.2-0.4-0.2-0.9v-11.7h4.6q0.3 0 0.6 0.1 0.3 0.1 0.6 0.2 0.2 0.2 0.4 0.4 0.2 0.3 0.4 0.5l0.4 0.8z"/>
	<path id="Layer" class="s0" d="m13.6 16.3l-1.1-1v3.7h-1.5v-3.7l-1.1 1-1-1.1 2.9-2.7 2.8 2.7z"/>
</svg>