<svg version="1.2" xmlns="http://www.w3.org/2000/svg" viewBox="0 0 40 40" width="40" height="40">
	<title>image</title>
	<style>
		.s0 { fill: #bfbfbf } 
		.s1 { fill: #f7f5f2 } 
		.s2 { fill: #777471 } 
		.s3 { fill: #6c6966 } 
	</style>
	<path id="Layer" class="s0" d="m31.2 9.1q0.8 0.6 0.8 1.8v19.2q0 1.2-0.8 1.8-0.9 0.6-2.4 0.6h-17.6q-1.5 0-2.4-0.6-0.8-0.6-0.8-1.8v-19.2q0-1.2 0.8-1.8 0.9-0.6 2.4-0.6h17.6q1.5 0 2.4 0.6z"/>
	<path id="Layer" class="s1" d="m31.2 7.6q0.8 0.6 0.8 1.8v19.2q0 1.2-0.8 1.8-0.9 0.6-2.4 0.6h-17.6q-1.5 0-2.4-0.6-0.8-0.6-0.8-1.8v-19.2q0-1.2 0.8-1.8 0.9-0.6 2.4-0.6h17.6q1.5 0 2.4 0.6z"/>
	<path id="Layer" class="s2" d="m17.3 15.9l-2.7 2.9 2.7 2.9-0.9 0.9-3.5-3.8 3.5-3.8c0 0 0.9 0.9 0.9 0.9zm9.6 2.9l-3.5 3.8-0.9-0.9 2.7-2.9-2.7-2.9 0.9-0.9c0 0 3.5 3.8 3.5 3.8zm-5.2-5.3l-2.6 10.8-1.2-0.2 2.5-10.9z"/>
	<path id="Layer" fill-rule="evenodd" class="s3" d="m17.9 24.1l2.5-10.9 1.3 0.3-0.2 0.5-1.1-0.3-2.4 10.4zm-1.5-9c0 0 0.9 0.8 0.9 0.8l-0.2 0.3-0.7-0.6-3.3 3.5-0.2-0.3zm-1.8 4.3l0.2-0.3 2.5 2.7-0.2 0.2c0 0-2.5-2.6-2.5-2.6zm12.3-0.5l-0.3 0.2-3.2-3.5-0.7 0.6-0.3-0.2 1-0.9c0 0 3.5 3.8 3.5 3.8zm-4.5 2.9l2.5-2.7 0.3 0.3-2.5 2.6c0 0-0.3-0.2-0.3-0.2z"/>
</svg>