<svg version="1.2" xmlns="http://www.w3.org/2000/svg" viewBox="0 0 24 24" width="24" height="24">
	<title>image</title>
	<style>
		.s0 { fill: #000000 } 
	</style>
	<path id="Layer" class="s0" d="m19 5v7.5h-1.5v-4.9l-5.6 5.5-1-1 5.5-5.6h-4.9v-1.5z"/>
	<path id="Layer" class="s0" d="m17.5 14h1.5v2.8q0 0.4-0.2 0.8-0.1 0.4-0.5 0.7-0.3 0.4-0.7 0.5-0.4 0.2-0.9 0.2h-9.4q-0.5 0-0.9-0.2-0.4-0.1-0.7-0.5-0.4-0.3-0.5-0.7-0.2-0.4-0.2-0.8v-9.6q0-0.4 0.2-0.8 0.1-0.4 0.5-0.7 0.3-0.4 0.7-0.5 0.4-0.2 0.9-0.2h2.7v1.5h-2.8q-0.1 0-0.2 0.1-0.2 0-0.3 0.1-0.1 0.1-0.1 0.3-0.1 0.1-0.1 0.2v9.6q0 0.1 0.1 0.2 0 0.2 0.1 0.3 0.1 0.1 0.3 0.1 0.1 0.1 0.3 0.1h9.4q0.2 0 0.3-0.1 0.2 0 0.3-0.1 0.1-0.1 0.1-0.3 0.1-0.1 0.1-0.2z"/>
</svg>