<svg version="1.2" xmlns="http://www.w3.org/2000/svg" viewBox="0 0 24 24" width="24" height="24">
	<title>image</title>
	<style>
		.s0 { fill: #000000 } 
	</style>
	<path id="Layer" class="s0" d="m12.8 10.1q0.4 0.2 0.7 0.4 0.2 0.3 0.4 0.7 0.1 0.4 0.1 0.8 0 0.4-0.1 0.8-0.2 0.4-0.4 0.7-0.3 0.2-0.7 0.4-0.4 0.1-0.8 0.1-0.4 0-0.8-0.1-0.4-0.2-0.7-0.4-0.2-0.3-0.4-0.7-0.1-0.4-0.1-0.8 0-0.4 0.1-0.8 0.2-0.4 0.4-0.7 0.3-0.2 0.7-0.4 0.4-0.1 0.8-0.1 0.4 0 0.8 0.1zm6 0q0.4 0.2 0.7 0.4 0.2 0.3 0.4 0.7 0.1 0.4 0.1 0.8 0 0.4-0.1 0.8-0.2 0.4-0.4 0.7-0.3 0.2-0.7 0.4-0.4 0.1-0.8 0.1-0.4 0-0.8-0.1-0.4-0.2-0.7-0.4-0.2-0.3-0.4-0.7-0.1-0.4-0.1-0.8 0-0.4 0.1-0.8 0.2-0.4 0.4-0.7 0.3-0.2 0.7-0.4 0.4-0.1 0.8-0.1 0.4 0 0.8 0.1zm-12 0q0.4 0.2 0.7 0.4 0.2 0.3 0.4 0.7 0.1 0.4 0.1 0.8 0 0.4-0.1 0.8-0.1 0.4-0.4 0.7-0.3 0.3-0.7 0.4-0.4 0.1-0.8 0.1-0.4 0-0.8-0.1-0.4-0.2-0.7-0.4-0.2-0.3-0.4-0.7-0.1-0.4-0.1-0.8 0-0.4 0.1-0.8 0.2-0.4 0.4-0.7 0.3-0.2 0.7-0.4 0.4-0.1 0.8-0.1 0.4 0 0.8 0.1z"/>
</svg>