<svg version="1.2" xmlns="http://www.w3.org/2000/svg" viewBox="0 0 24 24" width="24" height="24">
	<title>image</title>
	<style>
		.s0 { fill: #000000 } 
	</style>
	<path id="Layer" fill-rule="evenodd" class="s0" d="m19.5 8.5h-1.6l-1.2 9.5q-0.1 0.4-0.3 0.8-0.2 0.4-0.5 0.6-0.3 0.3-0.7 0.5-0.4 0.1-0.8 0.1h-5.3q-0.4 0-0.8-0.1-0.4-0.2-0.7-0.5-0.3-0.2-0.5-0.6-0.2-0.4-0.3-0.8l-1.2-9.5h-1.6v-1.5h4v-0.7q0-0.5 0.2-0.9 0.1-0.4 0.5-0.7 0.3-0.4 0.7-0.5 0.4-0.2 0.9-0.2h2.9q0.5 0 0.9 0.2 0.4 0.1 0.7 0.5 0.4 0.3 0.5 0.7 0.2 0.4 0.2 0.8v0.8h4zm-10-1.5h4.5v-0.8q0-0.1-0.1-0.2 0-0.2-0.1-0.3-0.1-0.1-0.3-0.1-0.1-0.1-0.3-0.1h-2.9q-0.2 0-0.3 0.1-0.2 0-0.3 0.1-0.1 0.1-0.1 0.3-0.1 0.1-0.1 0.2zm6.9 1.5h-9.3l1.2 9.4q0 0.1 0.1 0.3 0.1 0.1 0.2 0.2 0.1 0.1 0.2 0.1 0.1 0 0.3 0h5.3q0.2 0 0.3 0 0.1 0 0.2-0.1 0.1-0.1 0.2-0.2 0.1-0.2 0.1-0.3z"/>
</svg>