<svg version="1.2" xmlns="http://www.w3.org/2000/svg" viewBox="0 0 24 24" width="24" height="24">
	<title>image</title>
	<style>
		.s0 { fill: #000000 } 
	</style>
	<path id="Layer" fill-rule="evenodd" class="s0" d="m17.6 6.4q0.1 0.2 0.2 0.4 0.1 0.2 0.2 0.4 0 0.2 0 0.4v12.4h-12.5v-16h8.9q0.2 0 0.4 0 0.2 0.1 0.4 0.2 0.2 0.1 0.4 0.2 0.2 0.1 0.4 0.3l1.3 1.3q0.2 0.2 0.3 0.4zm-1.1 12.1v-10.5h-2.5v-2.5h-7v13z"/>
	<path id="Layer" class="s0" d="m11.8 10l2.8 2.7-1 1.1-1.1-1v3.7h-1.5v-3.7l-1.1 1-1-1.1c0 0 2.8-2.7 2.8-2.7z"/>
</svg>