<svg version="1.2" xmlns="http://www.w3.org/2000/svg" viewBox="0 0 24 24" width="24" height="24">
	<title>folderIcon-svg</title>
	<style>
		.s0 { fill: #000000 } 
	</style>
	<path id="Layer" class="s0" d="m11.8 16.9q0 0.2 0.1 0.4 0.1 0.2 0.2 0.3 0.1 0.2 0.2 0.4h-6.6q-0.4 0-0.8-0.2-0.4-0.1-0.7-0.5-0.4-0.3-0.5-0.7-0.2-0.4-0.2-0.8v-11.8h4.6q0.3 0 0.6 0.1 0.3 0.1 0.6 0.2 0.2 0.2 0.4 0.4 0.2 0.3 0.4 0.5l0.4 0.8h9.5v4.3q-0.7-0.4-1.5-0.6v-2.2h-9l-0.8-1.6q0-0.1-0.1-0.2 0 0-0.1-0.1-0.1 0-0.2-0.1-0.1 0-0.2 0h-3.1v10.3q0 0.1 0.1 0.2 0 0.2 0.1 0.3 0.1 0.1 0.3 0.1 0.1 0.1 0.2 0.1h6q0 0.2 0.1 0.4z"/>
	<path id="Layer" fill-rule="evenodd" class="s0" d="m21 15c0 2.6-1.6 4-4 4-2.4 0-4-1.4-4-4 0-2.6 1.6-4 4-4 2.4 0 4 1.4 4 4zm-3.5-2.5h-1v2h-1.5v1h2.5z"/>
</svg>