<svg version="1.2" xmlns="http://www.w3.org/2000/svg" viewBox="0 0 24 24" width="24" height="24">
	<title>infoIcon-svg</title>
	<style>
		.s0 { fill: #000000 } 
	</style>
	<path id="Layer" fill-rule="evenodd" class="s0" d="m19.5 11.8c0 5.2-2.5 7.7-7.8 7.7-5.2 0-7.7-2.5-7.7-7.8 0-5.2 2.5-7.7 7.8-7.7 5.2 0 7.7 2.5 7.7 7.7zm-1.5 0c0-4.3-1.9-6.2-6.3-6.2-4.3 0-6.2 1.9-6.2 6.2 0 4.4 1.9 6.3 6.3 6.3 4.3 0 6.2-1.9 6.2-6.3z"/>
	<path id="Layer" class="s0" d="m12 8q0.2 0.1 0.3 0.2 0.1 0.1 0.2 0.3 0 0.1 0 0.3c0 0.3-0.2 0.5-0.5 0.6-0.2 0.2-0.6 0.1-0.8-0.1-0.2-0.2-0.3-0.6-0.1-0.8 0.1-0.3 0.3-0.5 0.7-0.5q0.1 0 0.2 0zm-0.6 2.5q0.2 0 0.4 0 0.1 0 0.3 0 0.2 0 0.4-0.1v5.1h-1.5v-5.1q0.2 0.1 0.4 0.1z"/>
</svg>