<svg version="1.2" xmlns="http://www.w3.org/2000/svg" viewBox="0 0 24 24" width="24" height="24">
	<title>image</title>
	<style>
		.s0 { fill: #000000 } 
	</style>
	<path id="Layer" fill-rule="evenodd" class="s0" d="m18.4 13.7q0.4 0.3 0.6 0.8 0.2 0.5 0.4 1 0.1 0.5 0.1 1v1h-5.5q0 0.4-0.1 0.8-0.2 0.4-0.4 0.7-0.3 0.2-0.7 0.4-0.4 0.1-0.8 0.1-0.4 0-0.8-0.1-0.4-0.2-0.7-0.4-0.2-0.3-0.4-0.7-0.1-0.4-0.1-0.8h-5.5v-1q0-0.5 0.1-1 0.2-0.5 0.4-1 0.2-0.5 0.6-0.9 0.4-0.3 0.8-0.6l0.3-0.3q0.2-0.1 0.3-0.2 0.2-0.2 0.3-0.4 0.1-0.2 0.1-0.4 0.1-0.2 0.1-0.4v-1.7c0-1.1 0-2.3 0.6-3.3 0.6-1.2 1.9-1.8 3.9-1.8 2 0 3.3 0.6 3.9 1.8 0.6 1 0.6 2.2 0.6 3.3v1.7q0 0.2 0.1 0.4 0 0.2 0.1 0.4 0.1 0.2 0.3 0.4 0.1 0.1 0.3 0.3l0.3 0.2q0.4 0.3 0.8 0.7zm-0.4 2.3q-0.1-0.3-0.2-0.5-0.1-0.3-0.3-0.5-0.1-0.2-0.3-0.4-0.2-0.2-0.4-0.4l-0.4-0.2q-0.3-0.2-0.6-0.5-0.2-0.3-0.4-0.7-0.2-0.3-0.3-0.7-0.1-0.4-0.1-0.8v-1.7c0-0.9 0-1.9-0.4-2.6-0.2-0.4-0.8-1-2.6-1-1.8 0-2.4 0.6-2.6 1-0.4 0.7-0.4 1.7-0.4 2.6v1.7q0 0.4-0.1 0.8-0.1 0.4-0.3 0.7-0.2 0.4-0.4 0.7-0.3 0.3-0.6 0.5l-0.4 0.2q-0.2 0.2-0.4 0.4-0.2 0.2-0.3 0.4-0.2 0.2-0.3 0.5-0.1 0.2-0.2 0.5z"/>
</svg>