<svg version="1.2" xmlns="http://www.w3.org/2000/svg" viewBox="0 0 24 24" width="24" height="24">
	<title>pinIcon-svg</title>
	<style>
		.s0 { fill: #000000 } 
	</style>
	<path id="Layer" fill-rule="evenodd" class="s0" d="m19.3 8.8q0.2 0.4 0.2 0.8 0 0.5-0.2 0.9-0.1 0.4-0.5 0.7l-1.6 1.6-1-1-1.9 2 0.9 0.9q0.3 0.3 0.5 0.7 0.2 0.4 0.2 0.8 0 0.5-0.2 0.9-0.2 0.4-0.5 0.7l-2 2-4-4-3.2 3.2-1-1 3.2-3.3-4-4 2-1.9q0.3-0.3 0.7-0.5 0.4-0.2 0.8-0.2 0.5 0 0.9 0.2 0.4 0.2 0.7 0.5l0.9 0.9 2-2-1-1 1.6-1.5q0.3-0.4 0.7-0.5 0.4-0.2 0.9-0.2 0.4 0 0.8 0.2 0.4 0.1 0.8 0.5l2.8 2.8q0.4 0.4 0.5 0.8zm-1.5 1.4q0.1-0.1 0.1-0.3 0.1-0.1 0.1-0.3 0-0.1-0.1-0.3 0-0.1-0.1-0.2l-2.9-2.9q-0.1-0.1-0.2-0.1-0.2-0.1-0.3-0.1-0.2 0-0.3 0.1-0.2 0-0.3 0.1l-0.5 0.5 1 1-4.1 4.1-1.9-2q-0.1-0.1-0.3-0.1-0.1-0.1-0.3-0.1-0.1 0-0.2 0.1-0.2 0-0.3 0.1l-0.9 0.9 6.9 7 1-0.9q0.1-0.1 0.1-0.3 0.1-0.1 0.1-0.3 0-0.1-0.1-0.2 0-0.2-0.1-0.3l-2-2 4-4 1 1 0.6-0.5z"/>
</svg>